<svg xmlns="http://www.w3.org/2000/svg" viewBox="0 0 238.16 430.64" fill="#404035">
	<path d="M214,.42a31.35,31.35,0,0,1-1.91,5.09,37.78,37.78,0,0,1-3.64,4.61A18.21,18.21,0,0,1,207,11.84a49.17,49.17,0,0,1-5,4.6,32.21,32.21,0,0,1-6.32,3.62,34,34,0,0,1-7.83,2.38,20.7,20.7,0,0,1-6.39-.45c-3.67-.61-7.31-1.45-11-2.12a1.79,1.79,0,0,0-1.45.4c-1.92,2.06-3.76,4.2-5.63,6.3a12,12,0,0,0-1.49,1.54,15.7,15.7,0,0,0-2.14,8.17c-.05,4.07-.47,8.13-.61,12.19-.07,2.06.24,4.12.18,6.18a5.91,5.91,0,0,0,1.69,4.29c3.46,3.86,6.83,7.79,10.3,11.62,3,3.36,6.12,6.7,9.35,9.88,1,1,2.17,1.81,2.41,3.28a35.67,35.67,0,0,1,.53,4.83c.12,4.69.14,9.38.23,14.06.07,3.78.16,7.55.27,11.33,0,2,0,3.91.26,5.83.3,2.35-.84,3.65-2.81,4.45-2.28.93-4.61,1.76-6.89,2.71-1.42.59-2.79,1.33-4.19,2a9.25,9.25,0,0,1-1.89.67,1.33,1.33,0,0,1-1-.25c-.82-.64-1.58-1.37-2.39-2-1.68-1.36-3.39-2.7-5.08-4.07a22.31,22.31,0,0,1-2.71-2.31,4.11,4.11,0,0,1-1.09-2.24c-.26-4.15-.4-8.32-.53-12.48,0-1.36.18-2.74.12-4.11-.12-2.56-.25-5.14-.58-7.69a7.52,7.52,0,0,0-2.13-4.32c-.77-.8-1.19-1.93-1.92-2.79-3.45-4-6.95-8-10.44-12a1.14,1.14,0,0,0-.68-.42c-4.17,0-8.34,0-12.5-.06-1.21,0-2.42-.25-3.62-.23-3.31,0-6.61.08-9.91.23-2.13.1-4.24.43-6.36.57-1.24.08-2.49-.06-3.73,0a16.71,16.71,0,0,0-3.54.29A3.84,3.84,0,0,0,98.84,77q-3,3.52-6,7.15Q89.41,88.41,86,92.73c-1.51,1.92-3,3.88-4.43,5.86a2.12,2.12,0,0,0-.4,1.18q.17,7.16.4,14.32a55.17,55.17,0,0,1,.2,7.37,11.77,11.77,0,0,1-1.92,4.63A58.8,58.8,0,0,1,75.6,132a14.08,14.08,0,0,1-2.67,2.31c-.26.19-.85,0-1.24-.11-1.66-.6-3.29-1.28-5-1.9a89.77,89.77,0,0,1-13.58-6.9c-.51-.3-1.06-.53-1.58-.82a5.44,5.44,0,0,1-.59-.4,7.52,7.52,0,0,0,.29-1.49c-.16-2.32-.35-4.63-.55-6.94-.29-3.35-.64-6.69-.88-10-.07-1,.21-2,.2-3.06,0-2.3-.22-4.59-.25-6.89a6.6,6.6,0,0,1,1.83-5.21,59.37,59.37,0,0,0,4.13-5.38c2.58-3.22,5.23-6.38,7.83-9.58a.91.91,0,0,0,.06-.88c2.82-3.44,5.67-6.86,8.44-10.35,1.2-1.52,2-3.4,3.37-4.73,1.73-1.69,1.3-3.62,1.29-5.57,0-3,.12-5.94-.13-8.89-.22-2.62.21-5.3-.84-7.86a9.45,9.45,0,0,1-.31-3,5.64,5.64,0,0,0-2.06-3.76c-2.85-2.69-5.86-5.21-8.66-7.94-1.93-1.88-4.16-2.18-6.64-2q-2.91.21-5.82.31c-2.6.09-5.21,0-7.81.22a56,56,0,0,0-9.17,1c-1.6.38-3,1.82-4.36,3-1.95,1.67-3.29,4.23-6.19,4.48a26.68,26.68,0,0,1-5.05-.18C17,29.14,16,26.75,14.64,24.87a1.56,1.56,0,0,1,.68-2c2.12-1.42,4.22-2.86,6.23-4.41,2.36-1.83,4.61-3.8,6.93-5.67a1.94,1.94,0,0,1,1-.31l8.94-.93c2.87-.32,5.72-.74,8.6-1,3.59-.31,7.2-.45,10.8-.74,2.15-.17,4.28-.58,6.42-.7A9.84,9.84,0,0,1,72,12.46c2.14,2.16,4.42,4.18,6.56,6.35.83.84,1.37,2,2.14,2.88,1.77,2.07,3.61,4.08,5.4,6.13A12.21,12.21,0,0,1,88.3,30.5a7.58,7.58,0,0,1,.29,3c0,1.54-.13,3.07-.15,4.61,0,2.79,0,5.59,0,8.39,0,1.21.32,2.41.38,3.62s0,2.65,0,4c-.06,2.22.58,4.46-.23,6.63a7,7,0,0,1-1.1,2.18c-1.66,1.91-3.52,3.67-5.14,5.62-2.4,2.89-4.64,5.91-7,8.85C74,79.2,72.48,81,71.05,82.75s-3,3.86-4.48,5.83a28.21,28.21,0,0,0-2.79,4.27A10.2,10.2,0,0,0,63,96.62c-.11,2.38-.1,4.79,0,7.18s.49,5,.67,7.53a37.48,37.48,0,0,1,0,4.24,3.06,3.06,0,0,0,1.77,3c1.13.62,2.24,1.3,3.34,1.94,2.2-1.43,2.11-3.61,1.83-5.69a85.78,85.78,0,0,1-.42-11.55c0-2.18-.31-4.36-.28-6.54A5.81,5.81,0,0,1,71,92.62c3.06-3.55,6.09-7.13,8.94-10.85A146,146,0,0,1,91.14,68.4c1-1,1.82-2.29,2.82-3.34a2.7,2.7,0,0,1,1.63-.74c2.51-.2,5-.31,7.53-.42,4.85-.2,9.7-.39,14.55-.54,2.08-.06,4.17.06,6.25,0,2.3,0,4.6-.11,6.9-.24a48.54,48.54,0,0,1,5.61-.45c2.21.14,4.64-.18,6.52,1.38a57.44,57.44,0,0,1,4.54,4.29c2,2,3.93,4.07,5.79,6.2,1.55,1.78,2.92,3.71,4.44,5.52s3,3.36,4.44,5a2.09,2.09,0,0,0,.22.28c2.26,1.71,2.47,4.16,2.58,6.71.15,3.65.45,7.28.59,10.93.07,1.74,0,3.5-.13,5.25a8.78,8.78,0,0,0,2.72,7c.77.77,1.54.79,2.17-.1a26.81,26.81,0,0,0,2.73-4.1,7.8,7.8,0,0,0,.32-3.19c0-2.1-.14-4.2-.15-6.3,0-1.41.2-2.81.14-4.21a45.22,45.22,0,0,0-.6-8.13,1,1,0,0,1-.08-.47c.46-1.73-.72-2.79-1.64-3.94-1.48-1.85-2.92-3.74-4.5-5.51-2.61-3-5.31-5.81-8-8.71-2-2.16-4-4.32-6-6.46A19.43,19.43,0,0,0,150,61.77a3.7,3.7,0,0,1-1.32-3c-.19-2.26-.19-4.53-.27-6.79s-.19-4.44-.21-6.67c0-1.4.16-2.81.17-4.22,0-1.24-.1-2.49-.11-3.74,0-.78.16-1.55.12-2.32-.07-1.22-.26-2.42-.39-3.63-.27-2.45.71-4.31,2.27-6.21,3.07-3.75,6.53-7.13,9.54-10.92a59.7,59.7,0,0,1,5-5c.17-.16.53-.36.5-.47-.15-.66-.07-1.29.6-1.43a7.11,7.11,0,0,1,2.89-.18,63.8,63.8,0,0,1,6.78,1.92c2.78,1,5.64,1.06,8.53,1.37,3.27.34,6.23-.47,9.25-1.13A40,40,0,0,0,199,7.21a2.42,2.42,0,0,1,.66-.25c2.59-.15,4.71-1.47,6.85-2.76,1.17-.7,2.47-1.15,3.64-1.84.87-.52,1.6-1.26,2.43-1.85A6.37,6.37,0,0,1,213.73,0Z" />
	<path d="M74.17,314.64c-1.49,1.53-2.85,2.94-2.51,5.57.42,3.28.09,6.64.3,10,.19,3.16.63,6.31,1,9.46.26,2,.63,4,1,6.05a1.71,1.71,0,0,0,.35.84c1.14,1.25,2.31,2.47,3.46,3.71,1.34,1.44,2.68,2.9,4,4.36,3.1,3.43,6.18,6.88,9.28,10.31a2.46,2.46,0,0,0,.51.51c2.27,1.29,2.19,3.58,2.34,5.71.29,4.13.48,8.26.71,12.39l.75,13.34c.15,2.78.29,5.55.47,8.33a3.42,3.42,0,0,1-1,2.66c-2.91,3.3-5.7,6.7-8.59,10-1.29,1.48-2.71,2.85-4.06,4.29-.59.63-1.18,1.26-1.7,1.94a7.63,7.63,0,0,1-6,2.92c-6.27.5-12.54.74-18.83.66-1.57,0-3.14-.19-4.71-.17-2.08,0-4.15.23-6.22.3-.83,0-1.67-.15-2.5-.17-1.94-.05-3.9,0-5.83-.15a4.75,4.75,0,0,1-2.17-1.11c-1.27-1-2.38-2.2-3.71-3.09a59.26,59.26,0,0,0-5.9-3.48,21.79,21.79,0,0,0-3.57-1.1c.08-.57.14-1.38.32-2.17a15.26,15.26,0,0,1,.71-2.39c.73-1.82,3.58-3.61,5.54-3.69a13.68,13.68,0,0,1,8.84,2.93c1.2.9,2.35,1.87,3.58,2.73a4.06,4.06,0,0,0,1.64.57,27.75,27.75,0,0,0,3.84.46c1.26,0,2.52-.17,3.78-.24,3.34-.17,6.68-.3,10-.48,2.77-.14,5.53-.37,8.3-.46,1.3-.05,2.61.13,3.92.17a4.81,4.81,0,0,0,4.19-2.23c.86-1.17,2.08-2.06,3.06-3.15,1.73-1.94,3.49-3.87,5-6a6.09,6.09,0,0,0,.91-3c.2-2.29.28-4.6.25-6.89,0-2.46-.27-4.92-.39-7.38-.06-1.23-.1-2.47-.1-3.7a49,49,0,0,0,0-6.18,14.86,14.86,0,0,0-4.85-9.72,53.09,53.09,0,0,1-4.21-4.52c-1.86-2.07-3.67-4.2-5.57-6.23-1.45-1.55-3.28-2.81-4.42-4.54-1-1.48-2.93-2.26-3.09-4.28-.09-1.07-.07-2.16-.14-3.24,0-.5-.16-1-.2-1.51a63.56,63.56,0,0,0-.53-6.49,84.3,84.3,0,0,1-.9-12.18c-.09-2.35-.24-4.7-.24-7.05,0-1.71,1-3,2.13-4.21,3.19-3.52,6.44-7,9.65-10.47,1-1,1.85-1,2.9,0s2,1.44,3,2.21c1.23.95,2.44,1.93,3.6,3,2,1.76,3.91,3.55,5.84,5.35a3.32,3.32,0,0,1,1.15,3,48.24,48.24,0,0,0,.19,6c.09,1.79.2,3.59.26,5.39a12.91,12.91,0,0,1-.12,1.86c-.34,2.83,1.85,4.27,3.33,6.1,1.94,2.4,3.85,4.82,5.8,7.2.81,1,1.73,1.88,2.57,2.83,1.24,1.39,2.54,2.74,3.68,4.21,1.25,1.62,3,1.83,4.79,1.91,2.53.1,5.08,0,7.62,0,2.76,0,5.53.23,8.29.19,2.46,0,4.92-.34,7.38-.47.56,0,1.12.27,1.68.26,1.59,0,3.19-.16,4.79-.22.76,0,1.52,0,2.27,0a50.47,50.47,0,0,0,5.5-.56,4,4,0,0,0,1.93-1.42c2.3-2.65,4.59-5.3,6.76-8.05s4.1-5.37,6-8.17a6.51,6.51,0,0,0,.95-3.22c.14-2.75.12-5.52.06-8.28,0-1.36-.31-2.73-.4-4.09s0-2.52-.11-3.78a8,8,0,0,0-.25-1.76,5.36,5.36,0,0,1,1.54-5.43,23.14,23.14,0,0,0,2.34-3.52,37.43,37.43,0,0,1,5.45-6.78c.5-.47.8-.61,1.29.13.31.48,1.1.62,1.66.95,1.78,1.08,3.57,2.14,5.32,3.26a59,59,0,0,1,5.09,3.45,15.58,15.58,0,0,1,3.8,3.52c.95,1.43.71,2.89,1,4.27.83,4,1.16,8.13,1.77,12.19.43,2.81,1,5.61,1.47,8.42.13.79,0,1.62.13,2.42.42,3.32.34,6.52-1.77,9.39-1.86,2.54-3.68,5.1-5.45,7.71-2,3-4,6.06-6,9.09-1.33,2-2.7,4-4,6a56,56,0,0,0-3.1,5,7.73,7.73,0,0,0-.68,3.14,47.07,47.07,0,0,0,.19,4.74c.24,3.63.49,7.27.77,10.9.21,2.69.46,5.38.71,8.07,0,.42.21.84.24,1.26.1,1.83.1,3.66.27,5.47a2.91,2.91,0,0,0,.81,1.76c2.13,2,4.35,3.8,6.54,5.68.12.11.25.2.36.32,2.13,2.28,2.18,2.16,5.12,1.29s6.11-2.13,9.44-1.95c2.25.12,4.56-.29,6.75.09a57.37,57.37,0,0,1,8,2.32,38.15,38.15,0,0,1,9.9,5c1.88,1.31,3.58,2.85,5.37,4.28,1,.77,1.94,1.51,2.88,2.3a21.46,21.46,0,0,1,2.11,1.93,1,1,0,0,1,.06,1,1.47,1.47,0,0,1-1.18.36c-2.57-.79-5.09-1.79-7.69-2.48-3.18-.85-6.43-1.44-9.64-2.18-2.05-.46-4.07-1-6.11-1.47a8.09,8.09,0,0,0-1.84,0c-2.29.05-4.56-.54-6.88.21-1.27.4-2.75.1-4.12.2a21.77,21.77,0,0,0-2.9.41c-2.73.58-5.46,1.15-8.16,1.83-2.1.53-3.36-.72-4.51-2-2.21-2.54-4.29-5.18-6.45-7.76a17.56,17.56,0,0,0-1.83-1.83c-.7-.6-1.53-1-1.89-2-.2-.56-1-.88-1.38-1.41-.56-.8-.86-1.81-1.49-2.54-1.86-2.12-1.33-4.74-1.55-7.15-.41-4.43-.53-8.88-.76-13.32-.09-1.82-.11-3.65-.24-5.47-.12-1.65-.44-3.28-.53-4.93-.14-2.88,0-5.78-.3-8.64-.2-2,.78-3.4,1.81-4.86,1.53-2.14,3-4.29,4.53-6.45.94-1.35,1.85-2.73,2.81-4.07,1.28-1.79,2.66-3.53,3.9-5.35,1.75-2.57,3.55-5.13,5.05-7.84a7.59,7.59,0,0,0,.54-3.82c-.17-3.5-.53-7-.77-10.49-.2-2.81-.33-5.62-.5-8.42a3.5,3.5,0,0,0-1.45-2.92,23.06,23.06,0,0,1-2.86-2.82c-.46-.47-.88-.41-1.33,0a3.5,3.5,0,0,0-1.35,2.77c.23,3.15.45,6.3.7,9.45q.22,2.91.5,5.81a8.4,8.4,0,0,0,.26,1.75c.84,2.55-.68,4.41-1.89,6.31s-2.78,3.91-4.15,5.88c-1.68,2.44-3.33,4.9-5,7.35-1.36,2-2.67,4-4.09,5.94s-2.7,3.55-4.16,5.24a4.15,4.15,0,0,1-3.36,1.51q-6.71-.06-13.4.19c-3.85.14-7.69.53-11.54.7-2.28.1-4.56-.06-6.85,0s-4.36.17-6.54.19c-1.15,0-2.29-.11-3.44-.17a33.18,33.18,0,0,0-3.45-.15,4.15,4.15,0,0,1-3.4-1.34c-2.84-2.9-5.74-5.74-8.55-8.67-1.15-1.21-2.07-2.61-3.17-3.87-1.25-1.44-2.62-2.78-3.85-4.25-1.83-2.17-3.38-4.61-5.42-6.54-1.59-1.5-1.32-3.22-1.55-4.93-.29-2.14-.39-4.32-.63-6.47-.32-2.8-.72-5.59-1-8.39S76.77,316.17,74.17,314.64Z" />
	<path d="M21.16,168.71a16,16,0,0,0,9.06-2.81c1.81-1.3,3.54-2.72,5.39-4a2.18,2.18,0,0,1,1.82-.09c2.43,1.12,4.8,2.38,7.21,3.57l11.65,5.72c4.46,2.2,8.91,4.42,13.38,6.62a4.28,4.28,0,0,0,4.15.13c2-1.06,4.25-1.79,6.26-2.91,2.78-1.55,5.45-3.3,8.13-5,1.53-1,3-2,4.51-3.07,2.15-1.47,4.29-3,6.46-4.42,1.35-.9,1.74-1.59,1.12-3.06a51.7,51.7,0,0,0-2.6-5.08c-1.12-2-2.39-3.93-3.5-5.94a3.06,3.06,0,0,1,.13-3.56c2.37-3.31,4.51-6.8,6.92-10.09,2.61-3.55,5.38-7,8.14-10.42,2-2.48,4-4.89,6.08-7.33.85-1,1.29-1,2.17-.05.06.05.08.14.14.19,3.09,2.35,5,5.83,7.69,8.47a38.13,38.13,0,0,1,5.05,6.3c1.48,2.19,3.13,4.26,4.73,6.36a14.06,14.06,0,0,0,1.82,2.16c2,1.78,1.28,3.78.55,5.75-1.22,3.26-2.54,6.48-3.78,9.73a11.63,11.63,0,0,0-.58,2.27c-.25,1.42.62,2.32,1.64,3.08,2.42,1.83,4.82,3.68,7.3,5.42,1.81,1.26,3.73,2.36,5.6,3.53s3.57,2.27,5.36,3.39c1.44.89,2.88,1.79,4.33,2.66,1.87,1.12,3.59.64,5.29-.45s3.16-1.91,4.73-2.88l7.65-4.72c1.62-1,3.24-2,4.85-2.95,4.49-2.78,8.87-5.74,13.63-8.09,1.48-.73,2.86-1.67,4.27-2.54,2.34-1.43,4.6-.66,7,.07s4.92,1.22,7.39,1.76a12.61,12.61,0,0,0,3,.45c1.69,0,3.36-.33,5.05-.48.44-.05,1.14-.17,1.27,0a1.91,1.91,0,0,1,.17,1.46c-1.07,3.1-2.71,5.64-6.08,6.76a15.25,15.25,0,0,1-6.62.95c-2.06-.23-4.15-.19-6.21-.34a8.81,8.81,0,0,0-5.13,1.53c-4.34,2.52-8.52,5.29-12.81,7.9-2.19,1.33-4.47,2.52-6.71,3.77-1,.55-1.94,1.08-2.9,1.64-2.18,1.27-4.33,2.6-6.54,3.82-2.82,1.56-5.68,3-8.52,4.55-2.12,1.14-3.39.93-5.34-.57s-4.06-2.82-6.07-4.26c-1.31-1-2.55-2-3.86-2.94-1.12-.82-2.28-1.57-3.41-2.37s-2-1.49-3.09-2.2c-3-2-6-4-8.94-6-.89-.6-1.69-1.32-2.56-2-1.59-1.17-3.26-2.24-4.77-3.5a3.23,3.23,0,0,1-.86-3.89c1.11-2.94,2.19-5.89,3.33-8.82.49-1.25,1.15-2.43,1.66-3.67,1-2.5.17-4.82-1.1-6.89-2-3.23-4.25-6.3-6.41-9.43-1.28-1.86-3.27-1.7-4.54.21-1.12,1.69-2.43,3.25-3.62,4.89s-2.32,3.41-3.59,5c-2,2.61-2,5.31-.55,8.11.63,1.24,1.34,2.43,2,3.64.88,1.58,1.75,3.17,2.65,4.74.35.61.87,1.14,1.18,1.77.9,1.85.39,3.19-1.31,5a48.75,48.75,0,0,1-7.88,6.16c-4.06,2.81-8.18,5.54-12.24,8.35-1.76,1.21-3.41,2.59-5.17,3.81-2.65,1.85-5.34,3.64-8,5.43a5.42,5.42,0,0,1-5.76.27c-2.61-1.28-5.32-2.35-7.92-3.64-2.19-1.08-4.27-2.39-6.44-3.51-1.58-.82-3.25-1.45-4.85-2.22-2.72-1.33-5.42-2.72-8.14-4.06-2.36-1.16-4.71-2.37-7.13-3.38a3.22,3.22,0,0,0-2.35.21c-4.36,2.1-8.67,2.37-12.91-.21a14.82,14.82,0,0,1-2.59-2.24,1.28,1.28,0,0,1-.26-1.13c.13-.26.69-.33,1.07-.44A2.8,2.8,0,0,1,21.16,168.71Z" />
	<path d="M17.87,275.4a12.81,12.81,0,0,1,1.68-6.25A13.54,13.54,0,0,1,26.81,263a12,12,0,0,1,5.08-.29,38.66,38.66,0,0,1,5.1,1.33,1.4,1.4,0,0,0,.86-.06c2.64-1.18,5.29-2.32,7.88-3.61,1.31-.65,2.48-1.59,3.73-2.36,1.87-1.14,3.78-2.24,5.65-3.39,4.37-2.69,8.75-5.37,13.09-8.11,2.67-1.68,5.22-3.58,8-5.13a3.06,3.06,0,0,1,3.77.15,24.73,24.73,0,0,0,3.65,2.13l9.86,5.9.3.2c1.62,1,3.24,2,4.87,3,1.84,1.13,3.7,2.22,5.53,3.36,2.09,1.31,4.16,2.63,6.21,4a16.76,16.76,0,0,1,2.73,2.07A3.14,3.14,0,0,1,114,266c-1.72,3.82-3.44,7.64-5.12,11.49a29.71,29.71,0,0,0-1.45,4c-.44,1.61.77,2.69,1.62,3.78,1.69,2.2,3.51,4.29,5.26,6.45.15.2.1.56.12.69.42.28.79.48,1.12.74.63.48,1.18,1.06,1.84,1.49,1.21.79,1.81.71,2.69-.44,2.56-3.3,5.22-6.54,7.56-10,1.81-2.66,1.73-5.43-.17-8.3a55,55,0,0,1-3.48-7.1c-.58-1.22-1.13-2.44-1.71-3.65-1.17-2.45-1-3.37,1.13-4.94,4.1-3,8.25-5.85,12.38-8.76,2.57-1.81,5.11-3.64,7.7-5.41,1.38-.93,2.85-1.71,4.24-2.63,2.36-1.55,4.66-3.17,7-4.71a18.61,18.61,0,0,1,3.8-2.15,3.23,3.23,0,0,1,2.4.61c3.67,2.45,7.23,5,10.9,7.48s7.46,4.82,11.24,7.15c3.52,2.18,7.12,4.23,10.64,6.4,2,1.24,4,2.52,5.89,3.93a3.25,3.25,0,0,0,4,0,11.15,11.15,0,0,1,9.33-1.21,10.93,10.93,0,0,1,6.9,6.28,1.85,1.85,0,0,1-.13,1.21c0,.09-.66.05-1-.07a11.7,11.7,0,0,0-9.14.36c-2.07.92-4,2.08-6,3.19a4.21,4.21,0,0,1-5.06-.13c-2.8-2-5.92-3.47-8.86-5.24-3.12-1.89-6.18-3.89-9.29-5.8-2.38-1.46-4.79-2.87-7.2-4.29C169.07,254,165,251.6,161,249.28c-1.86-1.07-2.16-.91-3.83.31-1.21.88-2.59,1.51-3.88,2.27-5.07,3-10.15,5.91-15.17,8.93-1.66,1-3.16,2.24-4.76,3.34-.53.36-.6.69-.31,1.28,1.52,3.12,3,6.27,4.5,9.39.95,1.95,2,3.85,2.91,5.83a2.59,2.59,0,0,1,0,2.08c-1.21,1.93-2.58,3.77-4,5.6-2.62,3.48-5.28,6.92-7.92,10.38-2.11,2.75-4.2,5.52-6.34,8.25a6.63,6.63,0,0,1-1.69,1.61c-1.38.85-1.69.67-2.82-.46-1.32-1.34-2.8-2.5-4.15-3.8-.91-.87-1.71-1.86-2.57-2.78-1.78-1.91-3.7-3.72-5.35-5.73-2.46-3-4.76-6.13-7.08-9.24a4,4,0,0,1-.07-5.14,13.64,13.64,0,0,0,.92-1.88q2-4.61,4-9.22a5.49,5.49,0,0,0,.55-1.56,1.71,1.71,0,0,0-.42-1.35q-3.13-2.42-6.41-4.67c-3.33-2.28-6.66-4.56-10.07-6.73-2.45-1.56-5-3-7.57-4.33a2.17,2.17,0,0,0-1.79.14c-2.79,1.57-5.52,3.24-8.27,4.88l-1.74,1c-3.7,2.16-7.42,4.29-11.1,6.49-2.62,1.57-5.13,3.31-7.76,4.86-2.91,1.73-6,3.16-8.81,5.06-2.24,1.52-3.91.33-5.8-.43-1.2-.48-2.43-.89-3.65-1.33-.59-.21-1.17-.44-1.78-.6a7.92,7.92,0,0,0-7,1.11c-1,.77-2,1.58-3.07,2.35A2.6,2.6,0,0,1,17.87,275.4Z" />
	<path d="M170.45,145.38a10.72,10.72,0,0,0,.82,1.6,14.76,14.76,0,0,1,2.58,6.81,16,16,0,0,1-1.3,9,7.8,7.8,0,0,1-1.65,2.05,14.64,14.64,0,0,1-2.06,2,11.94,11.94,0,0,1-2.94,1.71,39.59,39.59,0,0,1-6.28,1.84,15.71,15.71,0,0,1-9.36-1.3c.62-.73,1.19-1.37,1.74-2a24.36,24.36,0,0,0,5.16-9.68,25.61,25.61,0,0,0,.65-10.29c-.27-1.81-1.3-2.84-2.42-4.05.05.33.06.67.14,1a15.1,15.1,0,0,1-.69,10.65,24.06,24.06,0,0,1-3.08,4.18c-2.19,2.73-5.26,3.6-8.53,3.47a8.24,8.24,0,0,1-5.42-1.68,3.49,3.49,0,0,0-.85-.4c-1.41-.66-1.43-1-.24-2,.45-.41.81-.92,1.24-1.28a28.28,28.28,0,0,0,3.9-3.2,20.1,20.1,0,0,0,3.31-5,7.39,7.39,0,0,0,.5-5.16,33.54,33.54,0,0,0-3.48-7.36,1,1,0,0,0-.19-.3c-1.91-1.65-2.7-4.06-4.12-6.05a3.47,3.47,0,0,0-.3-.37c-1.87-2.09-3.71-4.21-5.61-6.26-1.32-1.42-1-2.72.68-3.78a13.26,13.26,0,0,0,3.65-3.35c2.78-3.91,4.59-8.26,4.13-13.18a12.55,12.55,0,0,0-2.29-6,7.66,7.66,0,0,1-.5-1,8.69,8.69,0,0,0-5.07-4.25,20.07,20.07,0,0,1-2.07-.92,11.84,11.84,0,0,0-5-1,17.89,17.89,0,0,0-9,2,4.61,4.61,0,0,0-2.44,2.71c-1,3.8-3.77,5.46-7.16,6.39a9.33,9.33,0,0,1-4.38.27C100.45,100.52,99,98.82,98,97a12,12,0,0,1-.85-10,7.25,7.25,0,0,1,4.72-4.63c1.6-.5,3.25-.84,4.89-1.22a2.53,2.53,0,0,1,.95,0c3.16.52,5.8-1,8.57-2.1a13.85,13.85,0,0,1,6.79-1.24c.92.11,1.89-.25,2.82-.2,2.64.12,5.27.28,7.89.57a5.78,5.78,0,0,1,2.36,1c2.73,1.77,5.47,3.54,8.1,5.45a24.27,24.27,0,0,1,7.64,8.78,15.68,15.68,0,0,1,1.63,8.17c-.09,1.11-.78,2.17-.94,3.29-.58,4.2-3,7.61-4.81,11.27-.65,1.31-1.44,2.55-2.19,3.81-.53.91-.66,1.71.31,2.48,3.21,2.55,6.31,5.25,9.61,7.68,2.29,1.69,4.82,3,7.27,4.52,3,1.79,5.93,1.32,9,.06a21.21,21.21,0,0,1,7.36-2.06,10.11,10.11,0,0,0,2.76-1c2-.71,4-1.3,6-.14,2.75,1.63,4.88,3.72,4.91,7.27a8.76,8.76,0,0,1-4.23,8c-2.67,1.65-5.42,1-8.12-.33a11.13,11.13,0,0,0-3.43-.84c-1.63-.23-3.28-.34-4.93-.45A9.73,9.73,0,0,0,170.45,145.38Z" />
	<path d="M168.7,280.4a17.39,17.39,0,0,0,3,1.1,32.11,32.11,0,0,0,5.44.44,13.35,13.35,0,0,0,3.11-.85,14.6,14.6,0,0,1,2.07-.42c4.21-.46,8.17.4,10.1,5.08a7.88,7.88,0,0,1,.41,4.87,22.8,22.8,0,0,1-.9,3.9c-1.17,2.72-3.42,4-6.34,4.24s-5-1-7.16-2.35a58.2,58.2,0,0,0-12.34-5.61c-1.6-.52-3.14-1.22-4.7-1.86a2.78,2.78,0,0,0-3.23.85c-2.67,2.94-5.27,5.95-7.88,8.95a2.26,2.26,0,0,0-.1,3.13c1.24,1.72,2.56,3.39,3.79,5.12a18.25,18.25,0,0,1,3.29,8.13,41.4,41.4,0,0,1,.58,5.32,20.51,20.51,0,0,1-.5,4.68,32,32,0,0,1-1.81,6.22,21,21,0,0,1-3.34,5,88.06,88.06,0,0,1-6.85,7.08,17.78,17.78,0,0,1-9,4.07,55.72,55.72,0,0,1-6.42.91,13.68,13.68,0,0,1-3.63-.45c-1.54-.3-3.06-.74-4.59-1.07a6.19,6.19,0,0,0-1.55-.1c-1.82.07-3.66.05-5.46.29a9.26,9.26,0,0,1-5.22-.84,10.38,10.38,0,0,1-6.24-8.1c-.43-2.78.44-5.09,1.72-7.44,1.83-3.38,4.92-4.57,8.39-4.93a7.14,7.14,0,0,1,5.53,1.92c1.12,1,1.6,2.77,2.48,4.13a8.65,8.65,0,0,0,2.12,2.58,11.69,11.69,0,0,0,9.42,1.6c2.15-.48,4.37-1.13,5.77-2.94,1.08-1.39,2.55-2.45,3.44-3.91,1.47-2.39,3.11-4.78,3.19-7.8,0-1,.44-2,.44-3a12.61,12.61,0,0,0-3.21-8.82,14,14,0,0,0-7.23-4.46c-.8-.2-.94-.65-.59-1.3,1.27-2.36,2.42-4.8,3.87-7,2.35-3.65,5-7.1,7.33-10.75,1.33-2.09,1.37-4.56,1.2-7-.25-3.66-2.17-6.68-3.7-9.84a9,9,0,0,0-3.39-3.41,7.43,7.43,0,0,1-1.12-1.24l.14-.49,2.86-.17c.12,0,.24,0,.36,0,4.77,0,8.56,2.26,11.57,5.65a16.7,16.7,0,0,1,3.91,8.41,1.8,1.8,0,0,0,.49,1,9.07,9.07,0,0,0,.92-2.17A11.86,11.86,0,0,0,155.79,266a16.79,16.79,0,0,0-5.29-3.9c-.72-.3-1.56-.31-2.29-.58-.37-.14-.86-.6-.85-.91s.4-.83.71-1.16a7.43,7.43,0,0,1,1.49-1.26,11.75,11.75,0,0,1,2.37-1.14A49.76,49.76,0,0,1,157,255.6a10.36,10.36,0,0,1,8.88,1.82c1.34,1,2.47,2.3,3.84,3.27,1.91,1.33,2.29,3.39,2.63,5.36a18.64,18.64,0,0,1-1.71,12.09,7.29,7.29,0,0,1-.65,1.2A9.4,9.4,0,0,1,168.7,280.4Z" />
	<path d="M50.89,311.76c-1.58,1.63-3.62,1.7-5.74,1.62a10.79,10.79,0,0,1-7.53-3.71c-2-2.21-3.61-5-3.36-8.1a12.53,12.53,0,0,1,3-7.49,13.91,13.91,0,0,1,7.92-4.7,13.7,13.7,0,0,1,5.45,0,14,14,0,0,0,7.86-.12c2-.72,4.18-1.17,6.23-1.87,3.16-1.08,6.28-2.28,9.42-3.41,1.27-.46,2.55-.87,3.83-1.29a8.87,8.87,0,0,0,5.92-8.44,4.63,4.63,0,0,0-.56-2.95c-1.55-2.16-3.51-3-6.09-2.31a1.94,1.94,0,0,0-1.41,2.3,5.35,5.35,0,0,1-.18,1.46,4.48,4.48,0,0,1-1.33-.5,8.22,8.22,0,0,1-2-9c1-2.56,3-3.59,5.2-4.52a7.61,7.61,0,0,1,6,0,38.62,38.62,0,0,1,5.91,2.72,18.76,18.76,0,0,1,3.37,3.3c2.5,2.66,2.87,6,2.83,9.41,0,2.37-1.19,4.47-2.39,6.5a21.41,21.41,0,0,0-2.22,4.2c-.52,1.62.24,3.18,1.21,4.55,1.25,1.76,2.45,3.59,3.85,5.24,2.2,2.59,4.51,5.09,6.85,7.56,1.92,2,3.9,4,5.94,5.95a9.45,9.45,0,0,0,6.83,2.95c1.52,0,3.05.37,4.58.43,1.3.05,2.61-.11,3.91-.17a47.05,47.05,0,0,0,5.95-.32,12.59,12.59,0,0,1,5.6.44,8.22,8.22,0,0,1,5.58,6.83,12.05,12.05,0,0,1-2,8.31,8.9,8.9,0,0,1-9.1,4.12,6.23,6.23,0,0,1-4.62-2.59,6.13,6.13,0,0,1-.91-2.1c-.25-1.24-.23-2.54-.52-3.77a1.78,1.78,0,0,0-1.21-1.12,54.58,54.58,0,0,0-6.75-.49c-2.81,0-5.63.24-8.44.45a3.47,3.47,0,0,0-1.5.63,15,15,0,0,0-6.7,10.76c-.08.53.15,1.1.1,1.64a1.1,1.1,0,0,1-.58.71.89.89,0,0,1-.83-.07,23.74,23.74,0,0,1-3-3.65c-1.62-2.81-2.91-5.79-1.65-9.14a19,19,0,0,1,1.79-4.09c1.3-1.91.44-3.29-.72-4.7-1.89-2.3-3.81-4.59-5.72-6.87-1-1.12-1.93-2.22-2.88-3.34-1.54-1.79-3-3.64-4.62-5.35A23.32,23.32,0,0,0,78.12,295a1.52,1.52,0,0,0-1.19-.07c-3.74,1.27-7.47,2.55-11.17,3.88-2.17.78-4.26,1.76-6.44,2.46a4.37,4.37,0,0,1-3.6-.25,24.82,24.82,0,0,0-6.08-2.14,6.47,6.47,0,0,0-7.28,3.42,5.28,5.28,0,0,0-.28,3c.37,2.38,1.29,4.53,3.82,5.37a22.39,22.39,0,0,0,3.57.62c.45.07.92.08,1.38.12Z" />
	<path d="M48.91,130.33a5.15,5.15,0,0,1-1.21.42,13.93,13.93,0,0,0-3.11.09,4,4,0,0,0-2,1.63,10.36,10.36,0,0,0-1,2.53c-.58,1.65.9,3.8,3,4.5,2.25.76,4-.09,5.67-1.49,1-.87,1.87-2,2.91-2.8a3,3,0,0,1,2-.74c2.15.35,4.26.91,6.38,1.41l12.06,2.85c.11,0,.24,0,.36,0,2.91.54,3.66.22,5.24-2.3,1.76-2.8,3.55-5.59,5.26-8.42,2.45-4,4.8-8.15,7.25-12.18.56-.93.51-1.44-.46-2a10.64,10.64,0,0,1-5.14-6.78c-.48-1.9,0-4.1.24-6.12a13.3,13.3,0,0,1,2.73-6.48,22.73,22.73,0,0,1,4.06-3.56c.33-.25,1.08,0,1.87.1a18,18,0,0,1-1.29,2.88c-1.77,2.55-.45,7,1.91,8.78,1.6,1.25,3.31,2.38,5.42,2.22,2.5-.2,5-.63,7.47-1,1.48-.2,3-.39,4.44-.71a1.67,1.67,0,0,0,1.07-1,11,11,0,0,1,3.09-4.87,5.42,5.42,0,0,1,2.57-1.27c2.49-.56,5.12-1,7.51.09a7.54,7.54,0,0,1,4.46,4.85c.79,3.18.81,6.38-1.08,9.16a13.32,13.32,0,0,1-3.57,3c-1.82,1.29-3.8.94-5.89.62-1.82-.28-3.73.13-5.6.12s-3.74-.18-5.61-.19a16.2,16.2,0,0,0-3,.28,1.64,1.64,0,0,0-.89.69q-2.49,3.45-4.92,7-2.68,3.87-5.32,7.76-4.35,6.45-8.65,12.92c-.63,1-1.19,1.94-1.83,3a17,17,0,0,1,5.59,5,10.79,10.79,0,0,1,.88,10.3,16.14,16.14,0,0,1-2.1,3.82,9.58,9.58,0,0,1-6.71,3.79,10.79,10.79,0,0,1-6.78-1c-2.07-1.19-4.06-2.48-5-4.89-.38-1,.55-3.56,1.53-3.85a1,1,0,0,1,.84.49c.75,2.73,2.9,3.95,5.75,3.19a3.31,3.31,0,0,0,2.63-2.38c1-3.61.06-5.61-3.44-8-2.56-1.75-5.66-2.19-8.51-3.22-2.47-.88-5-1.52-7.59-2.17a29.42,29.42,0,0,0-3.28-.46,26.16,26.16,0,0,0-3.14-.47,3.64,3.64,0,0,0-2.08.56c-1.35,1-2.47,2.3-3.9,3.08A12.2,12.2,0,0,1,46,150.21a14,14,0,0,1-5.75-.89c-3.23-1-4.9-3.34-6.32-6a9.66,9.66,0,0,1-.56-6.32,12.6,12.6,0,0,1,6.08-8.69,7.3,7.3,0,0,1,7.22-.32C47.49,128.4,48,129.4,48.91,130.33Z" />
	<path d="M232.21,420.07c.13,1.1.29,2.2.37,3.3a3.33,3.33,0,0,1-.32,1.05,6.37,6.37,0,0,1-.86-.45c-1.29-1-2.6-1.89-3.84-2.9-1-.8-1.78-1.76-2.75-2.55a61.89,61.89,0,0,0-12.63-7.79,23.87,23.87,0,0,0-4.31-1.3,47.93,47.93,0,0,0-5.1-1.24,23.73,23.73,0,0,0-5-.23c-2.56.18-5.1.71-7.65.82a3.3,3.3,0,0,1-2.19-1.41c-1.3-1.77-2.39-3.69-3.57-5.55-1-1.58-2.06-3.13-3-4.73-.84-1.37-1.59-2.8-2.38-4.2s-1.53-2.82-2.36-4.18a23.9,23.9,0,0,0-2-2.87,3,3,0,0,1-.29-3.53c1.47-2.94,3-5.88,4.59-8.74,1.45-2.54,3.14-4.94,4.67-7.44,1.14-1.87,2.13-3.84,3.32-5.67,1.34-2.09,2.86-4.06,4.27-6.1.9-1.3,1.79-2.61,2.63-3.95a6.57,6.57,0,0,1,3.61-2.85,4.09,4.09,0,0,1,3.62.73,12.5,12.5,0,0,1,5.67,9.09c.16,1.43.12,2.88.26,4.31a4.34,4.34,0,0,1-1.77,3.71,6,6,0,0,1-2.86,1.22c-1.69.31-3.44.29-5.13.58a2.34,2.34,0,0,0-1.5,1.08,48.17,48.17,0,0,0-2.09,4.77c-1.47,3.81-2.9,7.65-4.31,11.49a26.09,26.09,0,0,0-1,3.26,1.29,1.29,0,0,0,.42,1.11c1.71,1.21,3.47,2.35,5.22,3.49.49.32,1,.57,1.53.86,1.87,1.06,3.67,2.26,5.61,3.15,3.22,1.46,6.52,2.73,9.8,4.06a12.88,12.88,0,0,0,2.26.71c.24,0,.64-.27.85-.52a23.23,23.23,0,0,1,2.42-2.87c1.32-1.11,5.19-1,6.64.17a27.55,27.55,0,0,1,4.37,4.4,12.59,12.59,0,0,1,2.17,5.33c.46,2.33,1.5,4.53,2.09,6.84.46,1.79.62,3.66.91,5.49Z" />
	<path d="M201.1,38.14c-2.61.22-4.11-1.59-5.73-3.11a1.81,1.81,0,0,0-1.87-.56,31.81,31.81,0,0,0-8.08,3.47c-1.64.9-3.33,1.71-5,2.56a11.25,11.25,0,0,0-1.75.94,2.32,2.32,0,0,0-.77,1.23c-.54,2.39.71,4.43,1.5,6.51s2.24,4.12,2.83,6.32,2.33,3.18,3.35,4.86a10.65,10.65,0,0,0,2,2.13.93.93,0,0,0,.89,0c1.83-1.24,3.72-2.37,6-2.25a5.26,5.26,0,0,1,2.54.81,9.38,9.38,0,0,1,3.53,3.33c1.45,2.82,1.13,8.19-1,10.53a40.48,40.48,0,0,1-4.62,4.25,4.66,4.66,0,0,1-3.58.64c-2.18-.22-3.6-1.66-5.22-2.75a48,48,0,0,1-5-4,29.42,29.42,0,0,1-2.87-3.13c-2.9-3.4-5.83-6.78-8.64-10.26A46.59,46.59,0,0,1,166,54.36c-1.25-2.08-2.32-4.32-1.71-6.83a26.29,26.29,0,0,1,1.73-4.3c1.81-4.1,3.61-8.21,5.52-12.27A13.74,13.74,0,0,1,174,27.33a3.85,3.85,0,0,1,2.43-.65,32.12,32.12,0,0,1,3.79.23c1.21.09,2.42.28,3.63.28a30.51,30.51,0,0,0,4.38-.31,51.56,51.56,0,0,0,6.06-1.21,20.83,20.83,0,0,0,7.72-4c1.14-.94,2.55-1.53,3.67-2.48,2.4-2,4.68-4.21,6-7.18a1.31,1.31,0,0,1,1.06-.6c.26,0,.63.55.69.9a28.92,28.92,0,0,1-.51,12,21.09,21.09,0,0,1-3.95,8.63c-.76.9-1.49,1.84-2.18,2.8C205.35,37.7,203.21,37.89,201.1,38.14Z" />
	<path d="M48.08,89.16a19.09,19.09,0,0,1-1.75-2.82c-.5-1.31-.75-2.71-1.12-4.07-.78-2.8-.23-5.53.15-8.33a9.21,9.21,0,0,0-1-6.41c-.7-1-2.21-1.57-3.43-2.18a19.15,19.15,0,0,0-3.09-1.08c-2.54-.76-5.34-4.13-5.5-6.86a16.09,16.09,0,0,1,.16-4.81c.87-3.38,2.25-4.43,5.77-5.26s5.42,1.29,7.31,3.55a3.41,3.41,0,0,0,4.12,1.31c4.4-1.42,6.36-5.28,5.55-10a30.72,30.72,0,0,0-2.8-8.46,9.2,9.2,0,0,0-4.69-4,4.83,4.83,0,0,0-5.06.14,4.28,4.28,0,0,1-1.51.26c0-.24-.1-.58,0-.69,1.1-1,2.22-2.07,3.37-3.05,2.1-1.8,4.81-2.05,7.27-2.95,1.85-.67,3.38-.06,5.05.2a11,11,0,0,1,2.09.34,13.47,13.47,0,0,1,5.93,4.43,20.81,20.81,0,0,1,2.29,2.64,58,58,0,0,1,3,6.65,32.48,32.48,0,0,1,1.08,4.53,4.41,4.41,0,0,1,0,.81,18.32,18.32,0,0,1,.19,3.68c-.6,4.08-1.11,8.2-2.77,12a32.8,32.8,0,0,1-6.32,9.95c-1.1,1.13-2,2.49-3,3.68a16.5,16.5,0,0,1-1.77,1.55A32.2,32.2,0,0,0,50,82.81c-.8,1.52-1,3.37-1.45,5.06C48.45,88.27,48.28,88.65,48.08,89.16Z" />
	<path d="M58.12,348.31a4.31,4.31,0,0,1,.27,1.08,8.71,8.71,0,0,0,2.3,6.41,79.5,79.5,0,0,0,9.49,9.49A28.54,28.54,0,0,1,79.07,377c1.09,2.78,2.17,5.81,2.15,8.72a37.25,37.25,0,0,1-1.49,11.67c-1.47,4.44-3.14,8.74-6.42,12.13-1.39,1.44-3.42,2.24-5,3.57s-3.08,1.35-4.67,1.77a13.05,13.05,0,0,1-8.29-.15,11.23,11.23,0,0,1-6.66-8,7.9,7.9,0,0,1,1.58.59c2.31,1.55,4.54,1,6.77-.15,4.16-2.1,6-5.85,6.76-10.13a23,23,0,0,0-.19-6.29,4.5,4.5,0,0,0-1.24-2.22,1.66,1.66,0,0,0-1.48-.38,21.19,21.19,0,0,0-4.84,2.11c-1.77,1.2-3.63,1.15-5.55,1.18a.83.83,0,0,1-.52-.25c-1.6-1.62-3.62-3-3.63-5.63,0-.36-.33-.72-.42-1.1-.6-2.58-.82-5.25,1.29-7.18a6.65,6.65,0,0,1,4.21-1.77c2.89.08,6.12-3.16,7-5.31a.8.8,0,0,0,.07-.56c-1.09-2.68-2.3-5.31-3.27-8a8.32,8.32,0,0,1-.43-3.63c.24-2,.9-4,1.18-6A5.34,5.34,0,0,1,58.12,348.31Z" />
	<path d="M72.23,223.56c0,3.92,0,7.84,0,11.75a2.41,2.41,0,0,1-.83,1.73c-3.66,2.39-7.37,4.7-11.08,7-3.42,2.13-6.82,4.29-10.3,6.32-3.13,1.82-6.35,3.47-9.53,5.2a4.88,4.88,0,0,0-1,.64c-1.81,1.73-3.81,1.26-5.72.38-4.82-2.22-9.63-4.47-14.38-6.84-3.21-1.6-6.33-3.36-9.45-5.15-2.34-1.33-4.55-2.89-6.91-4.21-1.24-.69-1.22-1.81-1.37-2.89-.18-1.3-.2-2.63-.31-3.95C1.17,231.72,1,229.87.86,228c-.1-1.35-.22-2.7-.22-4a1.11,1.11,0,0,1,.74-.83c2.08-.21,4.17-.38,6.26-.42,1.07,0,1.5.64,1.55,1.8.1,2.25.44,4.48.68,6.72a1.71,1.71,0,0,1,0,.59c-.47,1.85.61,2.56,2.11,3.14,1.71.67,3.37,1.49,5,2.28,2.68,1.27,5.34,2.58,8,3.84,2.24,1,4.5,2,6.76,3,1.32.56,2.66,1.09,4,1.54a2,2,0,0,0,1.31-.19c.95-.44,1.87-.95,2.77-1.48,1.53-.89,3-1.85,4.56-2.74s3-1.69,4.52-2.47c1.75-.9,3.78-1.44,5.26-2.66,2.86-2.37,6.38-3.55,9.32-5.71a1.51,1.51,0,0,0,.54-1c.14-2.17.23-4.34.3-6.51,0-1-.07-2,0-3s1.12-1,1.79-1.06a40.36,40.36,0,0,1,4.39.24,1.11,1.11,0,0,1,1.18,1.2c0,1.07.22,2.12.33,3.18Z" />
	<path d="M206.86,239.06c0-2.71-.09-5.26,0-7.8a3.17,3.17,0,0,0-1.42-3.22c-1.62-1.09-3.16-2.32-4.68-3.56a3.53,3.53,0,0,1-1.31-3c0-3.69-.27-7.37-.39-11.05a12.64,12.64,0,0,1,.13-2.95c.26-1.33,1.52-1.93,2.43-2.74,1.59-1.42,3.31-2.7,4.87-4.15.33-.3.31-1.07.31-1.62,0-2.56,0-5.11-.11-7.66,0-.9.37-1.17,1.15-.93a13,13,0,0,1,2.53.93c3.88,2.13,7.73,4.31,11.57,6.5,1.05.6,2,1.32,3.09,1.92a2,2,0,0,1,1.08,2.05c-.1,2.56-.24,5.12-.23,7.68,0,2.06.34,4.11.36,6.17,0,3.34-.05,6.69-.13,10a8.15,8.15,0,0,1-.35,2.2c-.49,1.57-2,2-3.25,2.71-2.36,1.4-4.82,2.66-7.22,4s-4.87,2.78-7.32,4.14A5.05,5.05,0,0,1,206.86,239.06Z" />
	<path d="M167.8,215.79c1.83,0,3.7,0,5.56,0,1,0,1.41.37,1.44,1.42.1,3.24.25,6.48.48,9.72a2.57,2.57,0,0,0,.92,1.55c2,1.6,3.93,3.23,6,4.63,2.34,1.57,4.85,2.88,7.24,4.37.93.58,1.68,1.44,2.6,2.05,1.08.71,2.24,1.3,3.39,1.91,1.81.95,3.67,1.81,5.46,2.81a2.17,2.17,0,0,0,3-.19,12,12,0,0,1,5.1-2.62c4.27-1.1,8.07-3.26,11.81-5.52,2.41-1.46,4.82-2.92,7.22-4.4,1.35-.83,2.36-1.76,2.29-3.66-.11-3.07.12-6.16.2-9.24,0-.36,0-.72,0-1.07,0-1.85.85-2.64,2.65-2.68,1.31,0,2.61-.12,3.92-.1.28,0,.77.39.78.61q.1,2.48,0,4.95c0,1.57-.18,3.13-.27,4.7-.15,2.7-.17,5.41-.52,8.08a4.11,4.11,0,0,1-1.69,2.42c-4.45,3.16-9,6.21-13.49,9.29-2,1.38-4,2.83-6.07,4.11-2.28,1.41-4.67,2.65-7,4-2,1.13-3.84,2.35-5.82,3.42a1.9,1.9,0,0,1-1.54-.2c-3.59-2.14-7.1-4.43-10.74-6.5a64,64,0,0,1-9.33-6.7c-1.4-1.17-3.07-2-4.53-3.12-2-1.51-3.9-3.13-5.85-4.68-.34-.27-.78-.41-1.11-.68A4.58,4.58,0,0,1,168,230.4c.07-3.77-.27-7.55-.39-11.33C167.61,218,167.74,217,167.8,215.79Z" />
	<path d="M166.76,210.41a3.92,3.92,0,0,0,.16-.77c.08-3.25.16-6.51.22-9.76a12.17,12.17,0,0,0,0-2.7c-.57-2.87,1.32-4.21,3.28-5.54q2-1.32,4-2.61c1.44-.94,2.9-1.85,4.34-2.79,3.35-2.19,6.66-4.45,10.07-6.56,3.2-2,6.51-3.8,9.74-5.73,1-.62,2-1.46,3.06-2a2.25,2.25,0,0,1,1.8,0c3.23,1.74,6.45,3.5,9.58,5.41q5.26,3.2,10.37,6.66c2.34,1.58,4.51,3.4,6.79,5.06,2.08,1.51,4.29,2.84,6.27,4.46a4,4,0,0,1,1.78,3.68c-.22,2.15-.11,4.34-.15,6.52,0,1.47-.18,2.94-.08,4.39.07,1.15-.47,1.53-1.42,1.55-1.51,0-3,0-4.54,0a1.24,1.24,0,0,1-1.41-1.38c0-2.58.19-5.16.16-7.73a2.57,2.57,0,0,0-.82-1.83,109,109,0,0,0-11.12-7c-3-1.71-6.11-3.24-9.19-4.81-2-1-3.95-2-5.94-2.9a1.31,1.31,0,0,0-.85-.07,41.77,41.77,0,0,0-9.12,3.71c-2,1.12-4.15,2.14-6.22,3.22-3.82,2-7.62,4-11.45,6a1.59,1.59,0,0,0-1,1.62c0,.92,0,1.84,0,2.76-.07,2.65-.15,5.29-.23,7.94,0,.64-1.08,1.36-1.89,1.34-1.42,0-2.84,0-4.26,0C168,210.6,167.38,210.48,166.76,210.41Z" />
	<path d="M83.38,205.7c0-2.83,0-5.66,0-8.48a2.76,2.76,0,0,1,1.37-2.52c1.42-.88,2.48-2.3,3.84-3.29,3.16-2.31,6.38-4.54,9.62-6.74,4.31-2.92,8.68-5.76,13-8.67,1.23-.84,2.32-1.9,3.59-2.66a2.66,2.66,0,0,1,2.18-.26c3.34,1.65,6.65,3.37,9.86,5.25,2.43,1.43,4.7,3.11,7,4.68,2.77,1.87,5.56,3.7,8.27,5.65,2.29,1.65,4.51,3.41,6.71,5.2a2.3,2.3,0,0,1,.67,1.52c.29,4.28.51,8.57.77,12.86a6,6,0,0,0,.19.79,1.78,1.78,0,0,1-1.69,2c-1.34.08-2.68.3-4,.32-2,0-2.53-.52-2.56-2.48-.05-2.32-.1-4.64-.07-7a5.21,5.21,0,0,0-3.2-5.09c-4.5-2.37-8.83-5.06-13.28-7.53-2.8-1.56-5.69-3-8.55-4.41a1,1,0,0,0-.77,0c-3.63,1.94-7.29,3.82-10.86,5.87-4.47,2.56-8.84,5.28-13.27,7.91A2.34,2.34,0,0,0,91,201.05c0,3.6-.23,7.2-.43,10.8,0,.28-.53.72-.83.74-1.71.14-3.42.19-5.13.21-.78,0-1.21-.4-1.24-1.25-.06-2-.19-3.9-.29-5.84Z" />
	<path d="M9.16,210.91c0,.84,0,1.68,0,2.51,0,1.65-.11,2.07-1.66,2.26a39.24,39.24,0,0,1-6.32.19c-.34,0-.86-1.05-.9-1.64-.16-2.38-.16-4.77-.2-7.16a12.62,12.62,0,0,1,.07-3.37,5,5,0,0,1,1.6-2.33c1.29-1.08,2.77-1.92,4.13-2.92,2-1.46,3.83-3,5.81-4.44s3.91-2.6,5.85-3.93,4.06-2.86,6.11-4.25c3.1-2.11,6.29-4.09,9.3-6.31,1.22-.9,2.07-.06,2.87.27,3.73,1.5,7.41,3.13,11,4.85,4.65,2.22,9.3,4.43,13.81,6.89,3.37,1.84,6.52,4.06,9.76,6.14a2.69,2.69,0,0,1,1.18,2.4c.09,2.55.31,5.1.43,7.65.07,1.45.07,2.9,0,4.34a1,1,0,0,1-.72.7c-1.94.16-3.88.3-5.83.3-1.15,0-1.61-.81-1.61-2,0-2.53,0-5.07-.23-7.58-.13-1.41-1.48-2.07-2.6-2.66-2.46-1.3-5.19-2.21-7.41-3.82a33.16,33.16,0,0,0-7.31-3.56c-3.19-1.32-6.47-2.42-9.73-3.56a2.82,2.82,0,0,0-2.56.22c-2.61,1.54-5.39,2.82-7.95,4.44-3.32,2.1-6.53,4.39-9.72,6.68-2.19,1.58-4.31,3.27-6.4,5a2.6,2.6,0,0,0-.78,1.55A26.85,26.85,0,0,0,9.16,210.91Z" />
	<path d="M34,240.84c-2.51-1.23-4.9-2.31-7.2-3.55-3.47-1.87-6.86-3.92-10.35-5.78-1.65-.88-1.66-2.28-1.76-3.83-.22-3.42-.7-6.82-.89-10.24-.14-2.76-.08-5.54.05-8.31,0-.55.66-1.18,1.16-1.57,2.79-2.17,5.63-4.25,8.44-6.39,2.49-1.9,4.94-3.86,7.44-5.75a5.47,5.47,0,0,1,1.38-.56,4.75,4.75,0,0,1,.41,1.26c0,2.21,0,4.41,0,6.61a3.25,3.25,0,0,0,1.54,3,43.16,43.16,0,0,1,4,3.27,2.2,2.2,0,0,1,.68,1.3c.28,2.81.47,5.62.73,8.42.13,1.47.29,2.95.51,4.41.23,1.64-.64,2.7-1.74,3.69S36.05,228.87,35,230a2.31,2.31,0,0,0-.57,1.46c-.05,2.74,0,5.47,0,8.21A4.52,4.52,0,0,1,34,240.84Z" />
	<path d="M150.38,221.93c-.19,3.54-.33,7.07-.61,10.6a2.7,2.7,0,0,1-1.13,1.65c-3.27,2.29-6.6,4.5-9.91,6.74s-6.54,4.65-10,6.69c-3.7,2.18-7.6,4-11.41,6a1.71,1.71,0,0,1-1.95.17q-6.69-3.37-13-7.31c-3.49-2.16-7-4.32-10.42-6.55-2.08-1.34-4-2.86-6.12-4.21a3.35,3.35,0,0,1-1.68-2.58c-.11-1.08,0-2.18-.12-3.27-.13-1.67-.36-3.32-.51-5a23.21,23.21,0,0,1,0-2.36,10.09,10.09,0,0,1,.16-2.28c.11-.43.61-1.06,1-1.08a36.06,36.06,0,0,1,5.5.07,2.08,2.08,0,0,1,1.32,1.46,41.49,41.49,0,0,1,.31,4.61,41,41,0,0,0,.29,4.31,3,3,0,0,0,1.09,1.74c1.82,1.35,3.72,2.59,5.61,3.84a18.53,18.53,0,0,0,3.41,2.08c4.69,1.79,8.62,5.1,13.55,6.43a4.25,4.25,0,0,0,3.41-.33c1.57-.81,3.21-1.49,4.79-2.3,2.48-1.26,5-2.46,7.37-3.91,2.79-1.71,5.42-3.67,8.12-5.52a6,6,0,0,1,.59-.39,5.43,5.43,0,0,0,3-5.79,34.74,34.74,0,0,1,.23-4.87c.05-.92.16-1.84.17-2.77,0-.6.18-.86.83-.84,1.69.06,3.39,0,5.07.14.37,0,.91.79,1,1.25a30.16,30.16,0,0,1,0,3.56Z" />
	<path d="M200.2,234.74c.07,1.37.17,2.73.21,4.09a2.4,2.4,0,0,1-.29.81c-.25-.12-.51-.2-.74-.34-2.16-1.39-4.33-2.78-6.47-4.2-3.27-2.16-6.5-4.37-9.78-6.53-1.1-.72-2.53-1-3.3-2.21-.14-.22-.41-.43-.42-.66-.08-2.22-.11-4.45-.16-6.68,0-1.22-.13-2.45-.08-3.67.13-3.49.33-7,.5-10.48.06-1.22.08-2.44.23-3.64a1.84,1.84,0,0,1,.71-1.17q6.49-4,13-8c1.48-.89,3-1.69,4.52-2.52a1.08,1.08,0,0,1,1.69.77A7.8,7.8,0,0,1,200,192a59.48,59.48,0,0,1-.29,6.13,5.14,5.14,0,0,1-1.38,2.79c-1.53,1.49-3.32,2.7-4.93,4.11a2.29,2.29,0,0,0-.77,1.55c.11,3.22.39,6.43.51,9.64a54.81,54.81,0,0,1,0,6.28c-.15,2,.86,3,2.37,4,1.33.84,2.54,1.87,3.79,2.83a1.35,1.35,0,0,1,.48.65c.25,1.59.45,3.18.67,4.76Z" />
	<path d="M38.08,194.26c2.17,1,4.12,1.84,6.1,2.65,3.5,1.44,7,2.8,10.53,4.26a41.3,41.3,0,0,1,4.37,2.17,1.79,1.79,0,0,1,.67,1.34c0,3.64-.14,7.29-.14,10.93,0,3.46.12,6.93.22,10.39a3.29,3.29,0,0,1-1.5,3.13c-3.45,2.25-6.87,4.54-10.36,6.72-1.6,1-3.33,1.78-5,2.68-.65.36-1.23.83-1.88,1.19s-1.08,0-1.16-.7a1.93,1.93,0,0,1,0-.24,54,54,0,0,1,0-6.49,7.86,7.86,0,0,1,1.68-3c.71-1,1.55-2,2.32-3,.26-.34.42-.88.76-1a1.83,1.83,0,0,0,1-1.83c.07-1.82.06-3.65,0-5.47,0-.74-.09-1.47-.14-2.21-.17-2.38-.32-4.77-.51-7.15a1.24,1.24,0,0,0-.44-.78c-1.94-1.46-4-2.82-5.83-4.39a4,4,0,0,1-.9-2.31,26.44,26.44,0,0,1-.26-4A28.66,28.66,0,0,1,38.08,194.26Z" />
	<path d="M23.31,291.83c0-3,1.64-4.63,3.44-5.93,2.07-1.5,4.39-2.67,6.58-4,1-.64,2-1.36,3.08-2,3.69-2.13,7.41-4.23,11.11-6.35,1.76-1,3.48-2.1,5.28-3a13.86,13.86,0,0,1,6.4-1.39,9.62,9.62,0,0,1,6.18,2.22,9.76,9.76,0,0,1,3.6,5.77,7.16,7.16,0,0,1-1.35,5.78,6.52,6.52,0,0,1-4,2.62,18.84,18.84,0,0,1-10-.83,7.31,7.31,0,0,0-6.06.21c-1.15.61-2.58.68-3.75,1.26-2.66,1.31-5.25,2.76-7.83,4.22a1.77,1.77,0,0,0-.65,1.15,9.73,9.73,0,0,1-3.41,5.68c-2,1.78-5.74.92-7.27-1.66C23.9,294.3,23.09,293,23.31,291.83Z" />
	<path d="M116.7,159.26c-.5-.84-.85-1.4-1.18-2q-1.6-2.79-3.19-5.59a38.18,38.18,0,0,1-2.23-4.06,3,3,0,0,1,.21-2.08c.6-1.39,1.38-2.7,2.07-4,1.11-2.14,2.2-4.28,3.31-6.4.48-.94,1.06-1,1.67-.12a5.16,5.16,0,0,1,.51.8c1,2,2.1,4,3.12,6.08.68,1.37,1.38,2.75,2,4.17a2.19,2.19,0,0,1,0,1.65c-1.87,3.62-3.83,7.2-5.76,10.79C117.11,158.65,117,158.82,116.7,159.26Z" />
	<path d="M117.71,290.69l-5-8.63c-.12-.2-.25-.41-.39-.6-1.18-1.61-1.11-2.9-.13-4.6,1.24-2.15,2.24-4.44,3.42-6.64.63-1.18,1.41-2.27,2.3-3.69a21,21,0,0,1,1.65,2.24c1.52,2.85,3,5.71,4.42,8.63a3.88,3.88,0,0,1,.1,3.93c-1.09,1.75-2.07,3.56-3.13,5.33-.55.94-1.13,1.87-1.76,2.75A10.25,10.25,0,0,1,117.71,290.69Z" />
</svg>
